ffmpeg started on 2016-12-08 at 12:25:35
Report written to "Output/x264/results/ffmpeg/Tcrowd_run_2160p50veryslow2000k.log"
Command line:
Tools/ffmpeg/ffmpeg -i Output/x264/encoded/crowd_run_2160p50veryslow2000k.mkv -c:v rawvideo -pix_fmt yuv420p Output/x264/transcoded/crowd_run_2160p50veryslow2000k.yuv
ffmpeg version N-82227-gdb23fde Copyright (c) 2000-2016 the FFmpeg developers
  built with gcc 5.4.0 (Ubuntu 5.4.0-6ubuntu1~16.04.2) 20160609
  configuration: --prefix=/home/jaroslav/ffmpeg_build --pkg-config-flags=--static --extra-cflags=-I/home/jaroslav/ffmpeg_build/include --extra-ldflags=-L/home/jaroslav/ffmpeg_build/lib --bindir=/home/jaroslav/bin --enable-gpl --enable-libass --enable-libfdk-aac --enable-libfreetype --enable-libmp3lame --enable-libopus --enable-libtheora --enable-libvorbis --enable-libvpx --enable-libx264 --enable-libx265 --enable-nvenc --enable-libmfx --enable-libxvid --enable-libgsm --enable-libopencore-amrnb --enable-version3 --enable-nonfree
  libavutil      55. 35.100 / 55. 35.100
  libavcodec     57. 66.101 / 57. 66.101
  libavformat    57. 57.100 / 57. 57.100
  libavdevice    57.  2.100 / 57.  2.100
  libavfilter     6. 66.100 /  6. 66.100
  libswscale      4.  3.100 /  4.  3.100
  libswresample   2.  4.100 /  2.  4.100
  libpostproc    54.  2.100 / 54.  2.100
Input #0, matroska,webm, from 'Output/x264/encoded/crowd_run_2160p50veryslow2000k.mkv':
  Metadata:
    ENCODER         : Lavf57.57.100
  Duration: 00:00:10.00, start: 0.000000, bitrate: 2094 kb/s
    Stream #0:0: Video: h264 (High), yuv420p(progressive), 3840x2160 [SAR 1:1 DAR 16:9], 50 fps, 50 tbr, 1k tbn, 100 tbc (default)
    Metadata:
      ENCODER         : Lavc57.66.101 libx264
      DURATION        : 00:00:10.000000000
Output #0, rawvideo, to 'Output/x264/transcoded/crowd_run_2160p50veryslow2000k.yuv':
  Metadata:
    encoder         : Lavf57.57.100
    Stream #0:0: Video: rawvideo (I420 / 0x30323449), yuv420p, 3840x2160 [SAR 1:1 DAR 16:9], q=2-31, 200 kb/s, 50 fps, 50 tbn, 50 tbc (default)
    Metadata:
      DURATION        : 00:00:10.000000000
      encoder         : Lavc57.66.101 rawvideo
Stream mapping:
  Stream #0:0 -> #0:0 (h264 (native) -> rawvideo (native))
Press [q] to stop, [?] for help
frame=   16 fps=0.0 q=-0.0 size=  194400kB time=00:00:00.32 bitrate=4976640.0kbits/s speed=0.623x    frame=   33 fps= 32 q=-0.0 size=  400950kB time=00:00:00.66 bitrate=4976640.0kbits/s speed=0.637x    frame=   50 fps= 32 q=-0.0 size=  607500kB time=00:00:01.00 bitrate=4976640.0kbits/s speed=0.643x    frame=   67 fps= 32 q=-0.0 size=  814050kB time=00:00:01.34 bitrate=4976640.0kbits/s speed=0.646x    frame=   84 fps= 32 q=-0.0 size= 1020600kB time=00:00:01.68 bitrate=4976640.0kbits/s speed=0.648x    frame=  101 fps= 32 q=-0.0 size= 1227150kB time=00:00:02.02 bitrate=4976640.0kbits/s speed=0.65x    frame=  118 fps= 33 q=-0.0 size= 1433700kB time=00:00:02.36 bitrate=4976640.0kbits/s speed=0.651x    frame=  135 fps= 33 q=-0.0 size= 1640250kB time=00:00:02.70 bitrate=4976640.0kbits/s speed=0.653x    frame=  152 fps= 33 q=-0.0 size= 1846800kB time=00:00:03.04 bitrate=4976640.0kbits/s speed=0.654x    frame=  169 fps= 33 q=-0.0 size= 2053350kB time=00:00:03.38 bitrate=4976640.0kbits/s speed=0.654x    frame=  186 fps= 33 q=-0.0 size= 2259900kB time=00:00:03.72 bitrate=4976640.0kbits/s speed=0.654x    frame=  203 fps= 33 q=-0.0 size= 2466450kB time=00:00:04.06 bitrate=4976640.0kbits/s speed=0.654x    frame=  220 fps= 33 q=-0.0 size= 2673000kB time=00:00:04.40 bitrate=4976640.0kbits/s speed=0.654x    frame=  237 fps= 33 q=-0.0 size= 2879550kB time=00:00:04.74 bitrate=4976640.0kbits/s speed=0.654x    frame=  254 fps= 33 q=-0.0 size= 3086100kB time=00:00:05.08 bitrate=4976640.0kbits/s speed=0.654x    frame=  269 fps= 33 q=-0.0 size= 3268350kB time=00:00:05.38 bitrate=4976640.0kbits/s speed=0.651x    frame=  280 fps= 32 q=-0.0 size= 3402000kB time=00:00:05.60 bitrate=4976640.0kbits/s speed=0.637x    frame=  294 fps= 32 q=-0.0 size= 3572100kB time=00:00:05.88 bitrate=4976640.0kbits/s speed=0.632x    frame=  308 fps= 31 q=-0.0 size= 3742200kB time=00:00:06.16 bitrate=4976640.0kbits/s speed=0.627x    frame=  323 fps= 31 q=-0.0 size= 3924450kB time=00:00:06.46 bitrate=4976640.0kbits/s speed=0.624x    frame=  337 fps= 31 q=-0.0 size= 4094550kB time=00:00:06.74 bitrate=4976640.0kbits/s speed=0.621x    frame=  349 fps= 31 q=-0.0 size= 4240350kB time=00:00:06.98 bitrate=4976640.0kbits/s speed=0.615x    frame=  361 fps= 30 q=-0.0 size= 4386150kB time=00:00:07.22 bitrate=4976640.0kbits/s speed=0.609x    frame=  376 fps= 30 q=-0.0 size= 4568400kB time=00:00:07.52 bitrate=4976640.0kbits/s speed=0.607x    frame=  390 fps= 30 q=-0.0 size= 4738500kB time=00:00:07.80 bitrate=4976640.0kbits/s speed=0.601x    frame=  403 fps= 30 q=-0.0 size= 4896450kB time=00:00:08.06 bitrate=4976640.0kbits/s speed=0.594x    frame=  417 fps= 30 q=-0.0 size= 5066550kB time=00:00:08.34 bitrate=4976640.0kbits/s speed=0.591x    frame=  431 fps= 29 q=-0.0 size= 5236650kB time=00:00:08.62 bitrate=4976640.0kbits/s speed=0.59x    frame=  442 fps= 29 q=-0.0 size= 5370300kB time=00:00:08.84 bitrate=4976640.0kbits/s speed=0.584x    frame=  452 fps= 29 q=-0.0 size= 5491800kB time=00:00:09.04 bitrate=4976640.0kbits/s speed=0.576x    frame=  466 fps= 29 q=-0.0 size= 5661900kB time=00:00:09.32 bitrate=4976640.0kbits/s speed=0.574x    frame=  480 fps= 29 q=-0.0 size= 5832000kB time=00:00:09.60 bitrate=4976640.0kbits/s speed=0.574x    frame=  494 fps= 29 q=-0.0 size= 6002100kB time=00:00:09.88 bitrate=4976640.0kbits/s speed=0.573x    frame=  500 fps= 29 q=-0.0 Lsize= 6075000kB time=00:00:10.00 bitrate=4976640.0kbits/s speed=0.57x    
video:6075000kB audio:0kB subtitle:0kB other streams:0kB global headers:0kB muxing overhead: 0.000000%
